<svg version="1.0" xmlns="http://www.w3.org/2000/svg" viewBox="53 92 248 248" preserveAspectRatio="xMidYMid meet">
<g transform="translate(0.000000,400.000000) scale(0.100000,-0.100000)" fill="currentColor" stroke="none">
<path d="M930 2278 c0 -832 1 -853 53 -1003 66 -191 178 -345 342 -467 169 -127 351 -188 560 -188 438 0 821 303 937 740 22 84 22 94 25 888 l4 802 -961 0 -960 0 0 -772z m588 229 c206 -193 325 -302 701 -647 85 -78 121 -106 116 -89 -8 26 -161 502 -227 709 -22 69 -48 151 -58 183 l-18 57 234 0 234 0 0 -682 0 -682 -102 100 c-104 101 -592 554 -660 613 -30 26 -44 32 -75 29 -31 -2 -39 -7 -41 -25 -3 -19 -10 -23 -36 -23 -24 0 -38 -7 -54 -30 -12 -16 -22 -33 -22 -38 0 -5 45 -146 100 -313 55 -166 97 -305 94 -308 -3 -3 -98 -6 -212 -6 l-207 0 -3 683 c-1 375 1 682 4 682 3 0 108 -96 232 -213z"/>
<path d="M1364 2428 c13 -63 46 -293 46 -320 0 -20 5 -28 17 -28 9 0 25 -7 34 -16 17 -16 19 -15 29 10 5 15 10 32 10 38 0 7 14 8 36 5 33 -6 37 -4 47 24 12 31 21 32 73 12 14 -5 16 -2 12 20 -3 18 1 32 13 43 29 26 23 40 -22 58 -43 17 -97 51 -217 135 -40 28 -75 51 -78 51 -4 0 -4 -15 0 -32z"/>
</g>
</svg>
